<?xml version="1.0" encoding="utf-8"?>
<!-- Generator: Adobe Illustrator 16.0.4, SVG Export Plug-In . SVG Version: 6.00 Build 0)  -->
<!DOCTYPE svg PUBLIC "-//W3C//DTD SVG 1.1//EN" "http://www.w3.org/Graphics/SVG/1.1/DTD/svg11.dtd">
<svg version="1.1" id="Layer_1" xmlns="http://www.w3.org/2000/svg" xmlns:xlink="http://www.w3.org/1999/xlink" x="0px" y="0px"
	 width="256px" height="256px" viewBox="0 0 256 256" enable-background="new 0 0 256 256" xml:space="preserve">
<circle fill="#FFFFFF" stroke="#000000" stroke-width="12" stroke-miterlimit="10" cx="128" cy="128" r="111"/>
<polygon fill="#FFFFFF" stroke="#000000" stroke-miterlimit="10" points="123.099,177.5 113.486,175.718 104.43,172.031 
	96.28,166.618 89.35,159.704 83.904,151.562 80.282,142.51 78.5,132.901 78.5,123.099 80.282,113.486 83.969,104.43 89.382,96.28 
	96.296,89.35 104.438,83.904 113.49,80.282 123.099,78.5 132.901,78.5 142.514,80.282 151.57,83.969 159.72,89.382 166.65,96.296 
	172.096,104.438 175.718,113.49 177.5,123.099 177.5,132.901 175.718,142.514 172.031,151.57 166.618,159.72 159.704,166.65 
	151.562,172.096 142.51,175.718 132.901,177.5 "/>
</svg>
